<svg xmlns="http://www.w3.org/2000/svg" id="sprotty_root" class="sprotty-graph sprotty-state-machine statemachine" style="border-block-end-color:rgb(204, 204, 204);border-block-start-color:rgb(204, 204, 204);border-bottom-color:rgb(204, 204, 204);border-inline-end-color:rgb(204, 204, 204);border-inline-start-color:rgb(204, 204, 204);border-left-color:rgb(204, 204, 204);border-right-color:rgb(204, 204, 204);border-top-color:rgb(204, 204, 204);caret-color:rgb(204, 204, 204);color:rgb(204, 204, 204);column-rule-color:rgb(204, 204, 204);font-family:&quot;Noto Sans&quot;, Helvetica, Arial, sans-serif;font-size:13px;outline-color:rgb(204, 204, 204);perspective-origin:0px 0px;scrollbar-color:rgba(121, 121, 121, 0.4) rgb(31, 31, 31);text-decoration:none solid rgb(204, 204, 204);text-decoration-color:rgb(204, 204, 204);text-emphasis-color:rgb(204, 204, 204);transform-origin:0px 0px;-webkit-locale:&quot;en&quot;;-webkit-text-fill-color:rgb(204, 204, 204);-webkit-text-stroke-color:rgb(204, 204, 204);" version="1.1" viewBox="10 10 590.0703125 1531" width="590.0703125" height="1531"><g transform="scale(1) translate(0,0)"><g id="sprotty_fsm$currentState" class="statemachine" transform="translate(15, 15)"><g class="sprotty-block" style="fill:rgb(255, 255, 255);stroke:rgb(48, 48, 48);stroke-dasharray:0px;"><rect x="0" y="0" rx="1" ry="1" width="580.0703125" height="1521"/><text x="290.03515625" y="12" class="sprotty-block-name" style="dominant-baseline:middle;fill:rgb(48, 48, 48);font-size:16px;font-weight:700;perspective-origin:169.859px 10.6719px;stroke:rgba(0, 0, 0, 0);text-anchor:middle;">currentState</text><line x1="0" y1="20" x2="580.0703125" y2="20"/></g><g id="sprotty_fsm$currentState/state$BLANK" class="state" transform="translate(243.95703125, 36)"><ellipse cx="32.234375" cy="16.5" rx="32.234375" ry="16.5" class="sprotty-node clickable" style="fill:rgb(255, 255, 255);stroke:rgb(48, 48, 48);"/><text class="clickable sprotty-label state" id="sprotty_fsm$currentState/state$BLANK/label" transform="translate(6, 8) translate(26.234375, 14)" style="cursor:default;fill:rgb(48, 48, 48);font-size:16px;perspective-origin:12.7031px 2.5px;text-anchor:middle;">BLANK</text></g><g id="sprotty_fsm$currentState/state$PATTERN0" class="state" transform="translate(265.890625, 126)"><ellipse cx="46.6015625" cy="16.5" rx="46.6015625" ry="16.5" class="sprotty-node clickable" style="fill:rgb(255, 255, 255);stroke:rgb(48, 48, 48);"/><text class="clickable sprotty-label state" id="sprotty_fsm$currentState/state$PATTERN0/label" transform="translate(6, 8) translate(40.6015625, 14)" style="cursor:default;fill:rgb(48, 48, 48);font-size:16px;perspective-origin:19.2812px 2.5px;text-anchor:middle;">PATTERN0</text></g><g id="sprotty_fsm$currentState/state$PATTERN1" class="state" transform="translate(265.890625, 216)"><ellipse cx="46.6015625" cy="16.5" rx="46.6015625" ry="16.5" class="sprotty-node clickable" style="fill:rgb(255, 255, 255);stroke:rgb(48, 48, 48);"/><text class="clickable sprotty-label state" id="sprotty_fsm$currentState/state$PATTERN1/label" transform="translate(6, 8) translate(40.6015625, 14)" style="cursor:default;fill:rgb(48, 48, 48);font-size:16px;perspective-origin:19.2812px 2.5px;text-anchor:middle;">PATTERN1</text></g><g id="sprotty_fsm$currentState/state$PATTERN2" class="state" transform="translate(265.890625, 306)"><ellipse cx="46.6015625" cy="16.5" rx="46.6015625" ry="16.5" class="sprotty-node clickable" style="fill:rgb(255, 255, 255);stroke:rgb(48, 48, 48);"/><text class="clickable sprotty-label state" id="sprotty_fsm$currentState/state$PATTERN2/label" transform="translate(6, 8) translate(40.6015625, 14)" style="cursor:default;fill:rgb(48, 48, 48);font-size:16px;perspective-origin:19.2812px 2.5px;text-anchor:middle;">PATTERN2</text></g><g id="sprotty_fsm$currentState/state$PATTERN3" class="state" transform="translate(265.890625, 396)"><ellipse cx="46.6015625" cy="16.5" rx="46.6015625" ry="16.5" class="sprotty-node clickable" style="fill:rgb(255, 255, 255);stroke:rgb(48, 48, 48);"/><text class="clickable sprotty-label state" id="sprotty_fsm$currentState/state$PATTERN3/label" transform="translate(6, 8) translate(40.6015625, 14)" style="cursor:default;fill:rgb(48, 48, 48);font-size:16px;perspective-origin:19.2812px 2.5px;text-anchor:middle;">PATTERN3</text></g><g id="sprotty_fsm$currentState/state$PATTERN4" class="state" transform="translate(265.890625, 486)"><ellipse cx="46.6015625" cy="16.5" rx="46.6015625" ry="16.5" class="sprotty-node clickable" style="fill:rgb(255, 255, 255);stroke:rgb(48, 48, 48);"/><text class="clickable sprotty-label state" id="sprotty_fsm$currentState/state$PATTERN4/label" transform="translate(6, 8) translate(40.6015625, 14)" style="cursor:default;fill:rgb(48, 48, 48);font-size:16px;perspective-origin:19.2812px 2.5px;text-anchor:middle;">PATTERN4</text></g><g id="sprotty_fsm$currentState/state$PATTERN5" class="state" transform="translate(265.890625, 576)"><ellipse cx="46.6015625" cy="16.5" rx="46.6015625" ry="16.5" class="sprotty-node clickable" style="fill:rgb(255, 255, 255);stroke:rgb(48, 48, 48);"/><text class="clickable sprotty-label state" id="sprotty_fsm$currentState/state$PATTERN5/label" transform="translate(6, 8) translate(40.6015625, 14)" style="cursor:default;fill:rgb(48, 48, 48);font-size:16px;perspective-origin:19.2812px 2.5px;text-anchor:middle;">PATTERN5</text></g><g id="sprotty_fsm$currentState/state$PATTERN6" class="state" transform="translate(265.890625, 666)"><ellipse cx="46.6015625" cy="16.5" rx="46.6015625" ry="16.5" class="sprotty-node clickable" style="fill:rgb(255, 255, 255);stroke:rgb(48, 48, 48);"/><text class="clickable sprotty-label state" id="sprotty_fsm$currentState/state$PATTERN6/label" transform="translate(6, 8) translate(40.6015625, 14)" style="cursor:default;fill:rgb(48, 48, 48);font-size:16px;perspective-origin:19.2812px 2.5px;text-anchor:middle;">PATTERN6</text></g><g id="sprotty_fsm$currentState/state$PATTERN7" class="state" transform="translate(265.890625, 756)"><ellipse cx="46.6015625" cy="16.5" rx="46.6015625" ry="16.5" class="sprotty-node clickable" style="fill:rgb(255, 255, 255);stroke:rgb(48, 48, 48);"/><text class="clickable sprotty-label state" id="sprotty_fsm$currentState/state$PATTERN7/label" transform="translate(6, 8) translate(40.6015625, 14)" style="cursor:default;fill:rgb(48, 48, 48);font-size:16px;perspective-origin:19.2812px 2.5px;text-anchor:middle;">PATTERN7</text></g><g id="sprotty_fsm$currentState/state$PATTERN8" class="state" transform="translate(265.890625, 846)"><ellipse cx="46.6015625" cy="16.5" rx="46.6015625" ry="16.5" class="sprotty-node clickable" style="fill:rgb(255, 255, 255);stroke:rgb(48, 48, 48);"/><text class="clickable sprotty-label state" id="sprotty_fsm$currentState/state$PATTERN8/label" transform="translate(6, 8) translate(40.6015625, 14)" style="cursor:default;fill:rgb(48, 48, 48);font-size:16px;perspective-origin:19.2812px 2.5px;text-anchor:middle;">PATTERN8</text></g><g id="sprotty_fsm$currentState/state$PATTERN9" class="state" transform="translate(265.890625, 936)"><ellipse cx="46.6015625" cy="16.5" rx="46.6015625" ry="16.5" class="sprotty-node clickable" style="fill:rgb(255, 255, 255);stroke:rgb(48, 48, 48);"/><text class="clickable sprotty-label state" id="sprotty_fsm$currentState/state$PATTERN9/label" transform="translate(6, 8) translate(40.6015625, 14)" style="cursor:default;fill:rgb(48, 48, 48);font-size:16px;perspective-origin:19.2812px 2.5px;text-anchor:middle;">PATTERN9</text></g><g id="sprotty_fsm$currentState/state$PATTERN10" class="state" transform="translate(261.4453125, 1026)"><ellipse cx="51.046875" cy="16.5" rx="51.046875" ry="16.5" class="sprotty-node clickable" style="fill:rgb(255, 255, 255);stroke:rgb(48, 48, 48);"/><text class="clickable sprotty-label state" id="sprotty_fsm$currentState/state$PATTERN10/label" transform="translate(6, 8) translate(45.046875, 14)" style="cursor:default;fill:rgb(48, 48, 48);font-size:16px;perspective-origin:21.5px 2.5px;text-anchor:middle;">PATTERN10</text></g><g id="sprotty_fsm$currentState/state$PATTERN11" class="state" transform="translate(262.0390625, 1116)"><ellipse cx="50.453125" cy="16.5" rx="50.453125" ry="16.5" class="sprotty-node clickable" style="fill:rgb(255, 255, 255);stroke:rgb(48, 48, 48);"/><text class="clickable sprotty-label state" id="sprotty_fsm$currentState/state$PATTERN11/label" transform="translate(6, 8) translate(44.453125, 14)" style="cursor:default;fill:rgb(48, 48, 48);font-size:16px;perspective-origin:21.5px 2.5px;text-anchor:middle;">PATTERN11</text></g><g id="sprotty_fsm$currentState/state$PATTERN12" class="state" transform="translate(261.4453125, 1206)"><ellipse cx="51.046875" cy="16.5" rx="51.046875" ry="16.5" class="sprotty-node clickable" style="fill:rgb(255, 255, 255);stroke:rgb(48, 48, 48);"/><text class="clickable sprotty-label state" id="sprotty_fsm$currentState/state$PATTERN12/label" transform="translate(6, 8) translate(45.046875, 14)" style="cursor:default;fill:rgb(48, 48, 48);font-size:16px;perspective-origin:21.5px 2.5px;text-anchor:middle;">PATTERN12</text></g><g id="sprotty_fsm$currentState/state$PATTERN13" class="state" transform="translate(261.4453125, 1296)"><ellipse cx="51.046875" cy="16.5" rx="51.046875" ry="16.5" class="sprotty-node clickable" style="fill:rgb(255, 255, 255);stroke:rgb(48, 48, 48);"/><text class="clickable sprotty-label state" id="sprotty_fsm$currentState/state$PATTERN13/label" transform="translate(6, 8) translate(45.046875, 14)" style="cursor:default;fill:rgb(48, 48, 48);font-size:16px;perspective-origin:21.5px 2.5px;text-anchor:middle;">PATTERN13</text></g><g id="sprotty_fsm$currentState/state$PATTERN14" class="state" transform="translate(261.4453125, 1386)"><ellipse cx="51.046875" cy="16.5" rx="51.046875" ry="16.5" class="sprotty-node clickable" style="fill:rgb(255, 255, 255);stroke:rgb(48, 48, 48);"/><text class="clickable sprotty-label state" id="sprotty_fsm$currentState/state$PATTERN14/label" transform="translate(6, 8) translate(45.046875, 14)" style="cursor:default;fill:rgb(48, 48, 48);font-size:16px;perspective-origin:21.5px 2.5px;text-anchor:middle;">PATTERN14</text></g><g id="sprotty_fsm$currentState/state$PATTERN15" class="state" transform="translate(225.14453125, 1476)"><ellipse cx="51.046875" cy="16.5" rx="51.046875" ry="16.5" class="sprotty-node clickable" style="fill:rgb(255, 255, 255);stroke:rgb(48, 48, 48);"/><text class="clickable sprotty-label state" id="sprotty_fsm$currentState/state$PATTERN15/label" transform="translate(6, 8) translate(45.046875, 14)" style="cursor:default;fill:rgb(48, 48, 48);font-size:16px;perspective-origin:21.5px 2.5px;text-anchor:middle;">PATTERN15</text></g><g id="sprotty_fsm$currentState/state$BLANK_to_fsm$currentState/state$PATTERN0" class="sprotty-edge transition" style="fill:none;stroke:rgb(48, 48, 48);stroke-linejoin:round;"><g><path d=" M286.9361979166667,69 C312.4921875,79 312.4921875,84 312.4921875,88.74999999999999 C312.4921875,93.5 312.49218749999994,97.99999999999999 312.4921874999999,103.62499999999999 C312.49218749999994,109.24999999999999 312.4921875,116 312.4921875,126"/><path d=" M286.9361979166667,69 C312.4921875,79 312.4921875,84 312.4921875,88.74999999999999 C312.4921875,93.5 312.49218749999994,97.99999999999999 312.4921874999999,103.62499999999999 C312.49218749999994,109.24999999999999 312.4921875,116 312.4921875,126" class="clickable"/></g><path d="M 312.4921875,126 L 319.4921875,123.5 L 319.4921875,128.5 Z" transform="rotate(-90 312.4921875 126)" class="arrow" style="fill:rgb(48, 48, 48);stroke-linejoin:miter;stroke-miterlimit:2;"/><text class="clickable sprotty-label transition" id="sprotty_fsm$currentState/state$BLANK_to_fsm$currentState/state$PATTERN0/label0" transform="translate(319.4921875, 89) translate(89.15625, 14)" style="cursor:default;fill:rgb(48, 48, 48);font-size:16px;perspective-origin:43.5938px 2.5px;stroke:none;text-anchor:middle;">losePatternEN = ACTIVE</text></g><g id="sprotty_fsm$currentState/state$PATTERN0_to_fsm$currentState/state$PATTERN1" class="sprotty-edge transition" style="fill:none;stroke:rgb(48, 48, 48);stroke-linejoin:round;"><g><path d=" M312.4921875,159 C312.4921875,169 312.4921875,178.25 312.4921875,187.5 C312.4921875,196.75 312.4921875,206 312.4921875,216"/><path d=" M312.4921875,159 C312.4921875,169 312.4921875,178.25 312.4921875,187.5 C312.4921875,196.75 312.4921875,206 312.4921875,216" class="clickable"/></g><path d="M 312.4921875,216 L 319.4921875,213.5 L 319.4921875,218.5 Z" transform="rotate(-90 312.4921875 216)" class="arrow" style="fill:rgb(48, 48, 48);stroke-linejoin:miter;stroke-miterlimit:2;"/><text class="clickable sprotty-label transition" id="sprotty_fsm$currentState/state$PATTERN0_to_fsm$currentState/state$PATTERN1/label0" transform="translate(319.4921875, 179) translate(124.2890625, 14)" style="cursor:default;fill:rgb(48, 48, 48);font-size:16px;perspective-origin:63.0625px 2.5px;stroke:none;text-anchor:middle;">stateMachineControl = not ACTIVE</text></g><g id="sprotty_fsm$currentState/state$PATTERN1_to_fsm$currentState/state$PATTERN2" class="sprotty-edge transition" style="fill:none;stroke:rgb(48, 48, 48);stroke-linejoin:round;"><g><path d=" M312.4921875,249 C312.4921875,259 312.4921875,268.25 312.4921875,277.5 C312.4921875,286.75 312.4921875,296 312.4921875,306"/><path d=" M312.4921875,249 C312.4921875,259 312.4921875,268.25 312.4921875,277.5 C312.4921875,286.75 312.4921875,296 312.4921875,306" class="clickable"/></g><path d="M 312.4921875,306 L 319.4921875,303.5 L 319.4921875,308.5 Z" transform="rotate(-90 312.4921875 306)" class="arrow" style="fill:rgb(48, 48, 48);stroke-linejoin:miter;stroke-miterlimit:2;"/><text class="clickable sprotty-label transition" id="sprotty_fsm$currentState/state$PATTERN1_to_fsm$currentState/state$PATTERN2/label0" transform="translate(319.4921875, 269) translate(110.9453125, 14)" style="cursor:default;fill:rgb(48, 48, 48);font-size:16px;perspective-origin:55.875px 2.5px;stroke:none;text-anchor:middle;">stateMachineControl = ACTIVE</text></g><g id="sprotty_fsm$currentState/state$PATTERN2_to_fsm$currentState/state$PATTERN3" class="sprotty-edge transition" style="fill:none;stroke:rgb(48, 48, 48);stroke-linejoin:round;"><g><path d=" M312.4921875,339 C312.4921875,349 312.4921875,358.25 312.4921875,367.5 C312.4921875,376.75 312.4921875,386 312.4921875,396"/><path d=" M312.4921875,339 C312.4921875,349 312.4921875,358.25 312.4921875,367.5 C312.4921875,376.75 312.4921875,386 312.4921875,396" class="clickable"/></g><path d="M 312.4921875,396 L 319.4921875,393.5 L 319.4921875,398.5 Z" transform="rotate(-90 312.4921875 396)" class="arrow" style="fill:rgb(48, 48, 48);stroke-linejoin:miter;stroke-miterlimit:2;"/><text class="clickable sprotty-label transition" id="sprotty_fsm$currentState/state$PATTERN2_to_fsm$currentState/state$PATTERN3/label0" transform="translate(319.4921875, 359) translate(124.2890625, 14)" style="cursor:default;fill:rgb(48, 48, 48);font-size:16px;perspective-origin:63.0625px 2.5px;stroke:none;text-anchor:middle;">stateMachineControl = not ACTIVE</text></g><g id="sprotty_fsm$currentState/state$PATTERN3_to_fsm$currentState/state$PATTERN4" class="sprotty-edge transition" style="fill:none;stroke:rgb(48, 48, 48);stroke-linejoin:round;"><g><path d=" M312.4921875,429 C312.4921875,439 312.4921875,448.25 312.4921875,457.5 C312.4921875,466.75 312.4921875,476 312.4921875,486"/><path d=" M312.4921875,429 C312.4921875,439 312.4921875,448.25 312.4921875,457.5 C312.4921875,466.75 312.4921875,476 312.4921875,486" class="clickable"/></g><path d="M 312.4921875,486 L 319.4921875,483.5 L 319.4921875,488.5 Z" transform="rotate(-90 312.4921875 486)" class="arrow" style="fill:rgb(48, 48, 48);stroke-linejoin:miter;stroke-miterlimit:2;"/><text class="clickable sprotty-label transition" id="sprotty_fsm$currentState/state$PATTERN3_to_fsm$currentState/state$PATTERN4/label0" transform="translate(319.4921875, 449) translate(110.9453125, 14)" style="cursor:default;fill:rgb(48, 48, 48);font-size:16px;perspective-origin:55.875px 2.5px;stroke:none;text-anchor:middle;">stateMachineControl = ACTIVE</text></g><g id="sprotty_fsm$currentState/state$PATTERN4_to_fsm$currentState/state$PATTERN5" class="sprotty-edge transition" style="fill:none;stroke:rgb(48, 48, 48);stroke-linejoin:round;"><g><path d=" M312.4921875,519 C312.4921875,529 312.4921875,538.25 312.4921875,547.5 C312.4921875,556.75 312.4921875,566 312.4921875,576"/><path d=" M312.4921875,519 C312.4921875,529 312.4921875,538.25 312.4921875,547.5 C312.4921875,556.75 312.4921875,566 312.4921875,576" class="clickable"/></g><path d="M 312.4921875,576 L 319.4921875,573.5 L 319.4921875,578.5 Z" transform="rotate(-90 312.4921875 576)" class="arrow" style="fill:rgb(48, 48, 48);stroke-linejoin:miter;stroke-miterlimit:2;"/><text class="clickable sprotty-label transition" id="sprotty_fsm$currentState/state$PATTERN4_to_fsm$currentState/state$PATTERN5/label0" transform="translate(319.4921875, 539) translate(124.2890625, 14)" style="cursor:default;fill:rgb(48, 48, 48);font-size:16px;perspective-origin:63.0625px 2.5px;stroke:none;text-anchor:middle;">stateMachineControl = not ACTIVE</text></g><g id="sprotty_fsm$currentState/state$PATTERN5_to_fsm$currentState/state$PATTERN6" class="sprotty-edge transition" style="fill:none;stroke:rgb(48, 48, 48);stroke-linejoin:round;"><g><path d=" M312.4921875,609 C312.4921875,619 312.4921875,628.25 312.4921875,637.5 C312.4921875,646.75 312.4921875,656 312.4921875,666"/><path d=" M312.4921875,609 C312.4921875,619 312.4921875,628.25 312.4921875,637.5 C312.4921875,646.75 312.4921875,656 312.4921875,666" class="clickable"/></g><path d="M 312.4921875,666 L 319.4921875,663.5 L 319.4921875,668.5 Z" transform="rotate(-90 312.4921875 666)" class="arrow" style="fill:rgb(48, 48, 48);stroke-linejoin:miter;stroke-miterlimit:2;"/><text class="clickable sprotty-label transition" id="sprotty_fsm$currentState/state$PATTERN5_to_fsm$currentState/state$PATTERN6/label0" transform="translate(319.4921875, 629) translate(110.9453125, 14)" style="cursor:default;fill:rgb(48, 48, 48);font-size:16px;perspective-origin:55.875px 2.5px;stroke:none;text-anchor:middle;">stateMachineControl = ACTIVE</text></g><g id="sprotty_fsm$currentState/state$PATTERN6_to_fsm$currentState/state$PATTERN7" class="sprotty-edge transition" style="fill:none;stroke:rgb(48, 48, 48);stroke-linejoin:round;"><g><path d=" M312.4921875,699 C312.4921875,709 312.4921875,718.25 312.4921875,727.5 C312.4921875,736.75 312.4921875,746 312.4921875,756"/><path d=" M312.4921875,699 C312.4921875,709 312.4921875,718.25 312.4921875,727.5 C312.4921875,736.75 312.4921875,746 312.4921875,756" class="clickable"/></g><path d="M 312.4921875,756 L 319.4921875,753.5 L 319.4921875,758.5 Z" transform="rotate(-90 312.4921875 756)" class="arrow" style="fill:rgb(48, 48, 48);stroke-linejoin:miter;stroke-miterlimit:2;"/><text class="clickable sprotty-label transition" id="sprotty_fsm$currentState/state$PATTERN6_to_fsm$currentState/state$PATTERN7/label0" transform="translate(319.4921875, 719) translate(124.2890625, 14)" style="cursor:default;fill:rgb(48, 48, 48);font-size:16px;perspective-origin:63.0625px 2.5px;stroke:none;text-anchor:middle;">stateMachineControl = not ACTIVE</text></g><g id="sprotty_fsm$currentState/state$PATTERN7_to_fsm$currentState/state$PATTERN8" class="sprotty-edge transition" style="fill:none;stroke:rgb(48, 48, 48);stroke-linejoin:round;"><g><path d=" M312.4921875,789 C312.4921875,799 312.4921875,808.25 312.4921875,817.5 C312.4921875,826.75 312.4921875,836 312.4921875,846"/><path d=" M312.4921875,789 C312.4921875,799 312.4921875,808.25 312.4921875,817.5 C312.4921875,826.75 312.4921875,836 312.4921875,846" class="clickable"/></g><path d="M 312.4921875,846 L 319.4921875,843.5 L 319.4921875,848.5 Z" transform="rotate(-90 312.4921875 846)" class="arrow" style="fill:rgb(48, 48, 48);stroke-linejoin:miter;stroke-miterlimit:2;"/><text class="clickable sprotty-label transition" id="sprotty_fsm$currentState/state$PATTERN7_to_fsm$currentState/state$PATTERN8/label0" transform="translate(319.4921875, 809) translate(110.9453125, 14)" style="cursor:default;fill:rgb(48, 48, 48);font-size:16px;perspective-origin:55.875px 2.5px;stroke:none;text-anchor:middle;">stateMachineControl = ACTIVE</text></g><g id="sprotty_fsm$currentState/state$PATTERN8_to_fsm$currentState/state$PATTERN9" class="sprotty-edge transition" style="fill:none;stroke:rgb(48, 48, 48);stroke-linejoin:round;"><g><path d=" M312.4921875,879 C312.4921875,889 312.4921875,898.25 312.4921875,907.5 C312.4921875,916.75 312.4921875,926 312.4921875,936"/><path d=" M312.4921875,879 C312.4921875,889 312.4921875,898.25 312.4921875,907.5 C312.4921875,916.75 312.4921875,926 312.4921875,936" class="clickable"/></g><path d="M 312.4921875,936 L 319.4921875,933.5 L 319.4921875,938.5 Z" transform="rotate(-90 312.4921875 936)" class="arrow" style="fill:rgb(48, 48, 48);stroke-linejoin:miter;stroke-miterlimit:2;"/><text class="clickable sprotty-label transition" id="sprotty_fsm$currentState/state$PATTERN8_to_fsm$currentState/state$PATTERN9/label0" transform="translate(319.4921875, 899) translate(124.2890625, 14)" style="cursor:default;fill:rgb(48, 48, 48);font-size:16px;perspective-origin:63.0625px 2.5px;stroke:none;text-anchor:middle;">stateMachineControl = not ACTIVE</text></g><g id="sprotty_fsm$currentState/state$PATTERN9_to_fsm$currentState/state$PATTERN10" class="sprotty-edge transition" style="fill:none;stroke:rgb(48, 48, 48);stroke-linejoin:round;"><g><path d=" M312.4921875,969 C312.4921875,979 312.4921875,988.25 312.4921875,997.5 C312.4921875,1006.75 312.4921875,1016 312.4921875,1026"/><path d=" M312.4921875,969 C312.4921875,979 312.4921875,988.25 312.4921875,997.5 C312.4921875,1006.75 312.4921875,1016 312.4921875,1026" class="clickable"/></g><path d="M 312.4921875,1026 L 319.4921875,1023.5 L 319.4921875,1028.5 Z" transform="rotate(-90 312.4921875 1026)" class="arrow" style="fill:rgb(48, 48, 48);stroke-linejoin:miter;stroke-miterlimit:2;"/><text class="clickable sprotty-label transition" id="sprotty_fsm$currentState/state$PATTERN9_to_fsm$currentState/state$PATTERN10/label0" transform="translate(319.4921875, 989) translate(110.9453125, 14)" style="cursor:default;fill:rgb(48, 48, 48);font-size:16px;perspective-origin:55.875px 2.5px;stroke:none;text-anchor:middle;">stateMachineControl = ACTIVE</text></g><g id="sprotty_fsm$currentState/state$PATTERN10_to_fsm$currentState/state$PATTERN11" class="sprotty-edge transition" style="fill:none;stroke:rgb(48, 48, 48);stroke-linejoin:round;"><g><path d=" M312.4921875,1059 C312.4921875,1069 312.4921875,1078.25 312.4921875,1087.5 C312.4921875,1096.75 312.4921875,1106 312.4921875,1116"/><path d=" M312.4921875,1059 C312.4921875,1069 312.4921875,1078.25 312.4921875,1087.5 C312.4921875,1096.75 312.4921875,1106 312.4921875,1116" class="clickable"/></g><path d="M 312.4921875,1116 L 319.4921875,1113.5 L 319.4921875,1118.5 Z" transform="rotate(-90 312.4921875 1116)" class="arrow" style="fill:rgb(48, 48, 48);stroke-linejoin:miter;stroke-miterlimit:2;"/><text class="clickable sprotty-label transition" id="sprotty_fsm$currentState/state$PATTERN10_to_fsm$currentState/state$PATTERN11/label0" transform="translate(319.4921875, 1079) translate(124.2890625, 14)" style="cursor:default;fill:rgb(48, 48, 48);font-size:16px;perspective-origin:63.0625px 2.5px;stroke:none;text-anchor:middle;">stateMachineControl = not ACTIVE</text></g><g id="sprotty_fsm$currentState/state$PATTERN11_to_fsm$currentState/state$PATTERN12" class="sprotty-edge transition" style="fill:none;stroke:rgb(48, 48, 48);stroke-linejoin:round;"><g><path d=" M312.4921875,1149 C312.4921875,1159 312.4921875,1168.25 312.4921875,1177.5 C312.4921875,1186.75 312.4921875,1196 312.4921875,1206"/><path d=" M312.4921875,1149 C312.4921875,1159 312.4921875,1168.25 312.4921875,1177.5 C312.4921875,1186.75 312.4921875,1196 312.4921875,1206" class="clickable"/></g><path d="M 312.4921875,1206 L 319.4921875,1203.5 L 319.4921875,1208.5 Z" transform="rotate(-90 312.4921875 1206)" class="arrow" style="fill:rgb(48, 48, 48);stroke-linejoin:miter;stroke-miterlimit:2;"/><text class="clickable sprotty-label transition" id="sprotty_fsm$currentState/state$PATTERN11_to_fsm$currentState/state$PATTERN12/label0" transform="translate(319.4921875, 1169) translate(110.9453125, 14)" style="cursor:default;fill:rgb(48, 48, 48);font-size:16px;perspective-origin:55.875px 2.5px;stroke:none;text-anchor:middle;">stateMachineControl = ACTIVE</text></g><g id="sprotty_fsm$currentState/state$PATTERN12_to_fsm$currentState/state$PATTERN13" class="sprotty-edge transition" style="fill:none;stroke:rgb(48, 48, 48);stroke-linejoin:round;"><g><path d=" M312.4921875,1239 C312.4921875,1249 312.4921875,1258.25 312.4921875,1267.5 C312.4921875,1276.75 312.4921875,1286 312.4921875,1296"/><path d=" M312.4921875,1239 C312.4921875,1249 312.4921875,1258.25 312.4921875,1267.5 C312.4921875,1276.75 312.4921875,1286 312.4921875,1296" class="clickable"/></g><path d="M 312.4921875,1296 L 319.4921875,1293.5 L 319.4921875,1298.5 Z" transform="rotate(-90 312.4921875 1296)" class="arrow" style="fill:rgb(48, 48, 48);stroke-linejoin:miter;stroke-miterlimit:2;"/><text class="clickable sprotty-label transition" id="sprotty_fsm$currentState/state$PATTERN12_to_fsm$currentState/state$PATTERN13/label0" transform="translate(319.4921875, 1259) translate(124.2890625, 14)" style="cursor:default;fill:rgb(48, 48, 48);font-size:16px;perspective-origin:63.0625px 2.5px;stroke:none;text-anchor:middle;">stateMachineControl = not ACTIVE</text></g><g id="sprotty_fsm$currentState/state$PATTERN13_to_fsm$currentState/state$PATTERN14" class="sprotty-edge transition" style="fill:none;stroke:rgb(48, 48, 48);stroke-linejoin:round;"><g><path d=" M312.4921875,1329 C312.4921875,1339 312.4921875,1348.25 312.4921875,1357.5 C312.4921875,1366.75 312.4921875,1376 312.4921875,1386"/><path d=" M312.4921875,1329 C312.4921875,1339 312.4921875,1348.25 312.4921875,1357.5 C312.4921875,1366.75 312.4921875,1376 312.4921875,1386" class="clickable"/></g><path d="M 312.4921875,1386 L 319.4921875,1383.5 L 319.4921875,1388.5 Z" transform="rotate(-90 312.4921875 1386)" class="arrow" style="fill:rgb(48, 48, 48);stroke-linejoin:miter;stroke-miterlimit:2;"/><text class="clickable sprotty-label transition" id="sprotty_fsm$currentState/state$PATTERN13_to_fsm$currentState/state$PATTERN14/label0" transform="translate(319.4921875, 1349) translate(110.9453125, 14)" style="cursor:default;fill:rgb(48, 48, 48);font-size:16px;perspective-origin:55.875px 2.5px;stroke:none;text-anchor:middle;">stateMachineControl = ACTIVE</text></g><g id="sprotty_fsm$currentState/state$PATTERN14_to_fsm$currentState/state$PATTERN15" class="sprotty-edge transition" style="fill:none;stroke:rgb(48, 48, 48);stroke-linejoin:round;"><g><path d=" M312.4921875,1419 C312.4921875,1429 312.4921875,1435.75 312.4921875,1441.375 C312.4921875,1447 312.49218749999994,1451.5 312.4921874999999,1456.2499999999998 C312.49218749999994,1460.9999999999998 312.4921875,1466 293.20703125,1476"/><path d=" M312.4921875,1419 C312.4921875,1429 312.4921875,1435.75 312.4921875,1441.375 C312.4921875,1447 312.49218749999994,1451.5 312.4921874999999,1456.2499999999998 C312.49218749999994,1460.9999999999998 312.4921875,1466 293.20703125,1476" class="clickable"/></g><path d="M 293.20703125,1476 L 300.20703125,1473.5 L 300.20703125,1478.5 Z" transform="rotate(-27.40825293714748 293.20703125 1476)" class="arrow" style="fill:rgb(48, 48, 48);stroke-linejoin:miter;stroke-miterlimit:2;"/><text class="clickable sprotty-label transition" id="sprotty_fsm$currentState/state$PATTERN14_to_fsm$currentState/state$PATTERN15/label0" transform="translate(319.4921875, 1439) translate(124.2890625, 14)" style="cursor:default;fill:rgb(48, 48, 48);font-size:16px;perspective-origin:63.0625px 2.5px;stroke:none;text-anchor:middle;">stateMachineControl = not ACTIVE</text></g><g id="sprotty_fsm$currentState/state$PATTERN15_to_fsm$currentState/state$BLANK" class="sprotty-edge transition" style="fill:none;stroke:rgb(48, 48, 48);stroke-linejoin:round;"><g><path d=" M259.17578125,1476 C239.890625,1466 239.89062499999997,1460.9999999999998 239.89062499999997,1456.25 C239.89062499999997,1451.5 239.890625,1447.0000000000002 239.890625,1442.5000000000002 C239.890625,1438.0000000000002 239.890625,1433.5000000000002 239.890625,1422.416666666667 C239.890625,1411.3333333333335 239.890625,1393.6666666666667 239.89062499999997,1381.7499999999998 C239.89062499999997,1369.8333333333333 239.89062499999997,1363.6666666666665 239.89062499999997,1357.4999999999998 C239.89062499999997,1351.3333333333333 239.89062499999997,1345.1666666666665 239.89062499999997,1333.2499999999998 C239.89062499999997,1321.3333333333333 239.890625,1303.6666666666667 239.890625,1291.75 C239.890625,1279.8333333333335 239.890625,1273.666666666667 239.890625,1267.5000000000002 C239.890625,1261.3333333333333 239.890625,1255.1666666666667 239.89062499999997,1243.2499999999998 C239.89062499999997,1231.333333333333 239.89062499999997,1213.6666666666665 239.89062499999997,1201.75 C239.89062499999997,1189.8333333333333 239.89062499999997,1183.6666666666667 239.89062499999997,1177.5 C239.89062499999997,1171.3333333333333 239.890625,1165.1666666666667 239.890625,1153.2500000000002 C239.890625,1141.3333333333335 239.890625,1123.6666666666667 239.890625,1111.7500000000002 C239.890625,1099.8333333333335 239.890625,1093.6666666666667 239.89062499999997,1087.5 C239.89062499999997,1081.3333333333333 239.89062499999997,1075.1666666666667 239.89062499999997,1063.25 C239.89062499999997,1051.333333333333 239.89062499999997,1033.6666666666665 239.89062499999997,1021.75 C239.89062499999997,1009.8333333333333 239.890625,1003.6666666666667 239.890625,997.5 C239.890625,991.3333333333334 239.890625,985.1666666666667 239.890625,973.2500000000001 C239.890625,961.3333333333333 239.890625,943.6666666666667 239.89062499999997,931.75 C239.89062499999997,919.8333333333333 239.89062499999997,913.6666666666666 239.89062499999997,907.5 C239.89062499999997,901.3333333333334 239.89062499999997,895.1666666666666 239.89062499999997,883.25 C239.89062499999997,871.3333333333333 239.890625,853.6666666666666 239.890625,841.7499999999998 C239.890625,829.8333333333334 239.890625,823.6666666666667 239.890625,817.5000000000001 C239.890625,811.3333333333334 239.890625,805.1666666666667 239.89062499999997,793.25 C239.89062499999997,781.3333333333333 239.89062499999997,763.6666666666666 239.890625,751.75 C239.890625,739.8333333333333 239.89062499999997,733.6666666666666 239.890625,727.5 C239.890625,721.3333333333334 239.89062499999997,715.1666666666666 239.89062499999997,703.2499999999999 C239.89062499999997,691.3333333333333 239.89062499999997,673.6666666666665 239.890625,661.75 C239.890625,649.8333333333334 239.89062499999997,643.6666666666666 239.890625,637.5000000000001 C239.890625,631.3333333333334 239.890625,625.1666666666666 239.890625,613.25 C239.890625,601.3333333333333 239.89062499999997,583.6666666666666 239.890625,571.75 C239.890625,559.8333333333333 239.89062499999997,553.6666666666666 239.89062499999997,547.4999999999999 C239.89062499999997,541.3333333333333 239.89062499999997,535.1666666666666 239.890625,523.25 C239.890625,511.3333333333333 239.89062499999997,493.66666666666663 239.890625,481.7500000000001 C239.890625,469.83333333333337 239.890625,463.6666666666667 239.890625,457.50000000000006 C239.890625,451.33333333333337 239.89062499999997,445.16666666666663 239.890625,433.25000000000006 C239.890625,421.33333333333337 239.89062499999997,403.6666666666667 239.89062499999997,391.75 C239.89062499999997,379.8333333333333 239.890625,373.66666666666663 239.890625,367.5 C239.890625,361.33333333333337 239.89062499999997,355.16666666666663 239.890625,343.25 C239.890625,331.3333333333333 239.89062499999997,313.66666666666663 239.89062499999997,301.74999999999994 C239.89062499999997,289.8333333333333 239.890625,283.66666666666663 239.89062499999997,277.49999999999994 C239.89062499999997,271.33333333333326 239.890625,265.16666666666663 239.890625,253.25000000000003 C239.890625,241.33333333333337 239.89062499999997,223.66666666666666 239.890625,211.75 C239.890625,199.83333333333334 239.890625,193.66666666666666 239.89062499999997,187.49999999999994 C239.89062499999997,181.3333333333333 239.890625,175.16666666666663 239.89062499999994,163.24999999999997 C239.89062499999997,151.33333333333331 239.890625,133.66666666666666 239.890625,122.58333333333333 C239.890625,111.49999999999999 239.89062499999994,106.99999999999999 239.89062499999994,102.49999999999997 C239.89062499999994,97.99999999999999 239.890625,93.5 239.890625,88.75 C239.890625,84 239.890625,79 265.44661458333337,69"/><path d=" M259.17578125,1476 C239.890625,1466 239.89062499999997,1460.9999999999998 239.89062499999997,1456.25 C239.89062499999997,1451.5 239.890625,1447.0000000000002 239.890625,1442.5000000000002 C239.890625,1438.0000000000002 239.890625,1433.5000000000002 239.890625,1422.416666666667 C239.890625,1411.3333333333335 239.890625,1393.6666666666667 239.89062499999997,1381.7499999999998 C239.89062499999997,1369.8333333333333 239.89062499999997,1363.6666666666665 239.89062499999997,1357.4999999999998 C239.89062499999997,1351.3333333333333 239.89062499999997,1345.1666666666665 239.89062499999997,1333.2499999999998 C239.89062499999997,1321.3333333333333 239.890625,1303.6666666666667 239.890625,1291.75 C239.890625,1279.8333333333335 239.890625,1273.666666666667 239.890625,1267.5000000000002 C239.890625,1261.3333333333333 239.890625,1255.1666666666667 239.89062499999997,1243.2499999999998 C239.89062499999997,1231.333333333333 239.89062499999997,1213.6666666666665 239.89062499999997,1201.75 C239.89062499999997,1189.8333333333333 239.89062499999997,1183.6666666666667 239.89062499999997,1177.5 C239.89062499999997,1171.3333333333333 239.890625,1165.1666666666667 239.890625,1153.2500000000002 C239.890625,1141.3333333333335 239.890625,1123.6666666666667 239.890625,1111.7500000000002 C239.890625,1099.8333333333335 239.890625,1093.6666666666667 239.89062499999997,1087.5 C239.89062499999997,1081.3333333333333 239.89062499999997,1075.1666666666667 239.89062499999997,1063.25 C239.89062499999997,1051.333333333333 239.89062499999997,1033.6666666666665 239.89062499999997,1021.75 C239.89062499999997,1009.8333333333333 239.890625,1003.6666666666667 239.890625,997.5 C239.890625,991.3333333333334 239.890625,985.1666666666667 239.890625,973.2500000000001 C239.890625,961.3333333333333 239.890625,943.6666666666667 239.89062499999997,931.75 C239.89062499999997,919.8333333333333 239.89062499999997,913.6666666666666 239.89062499999997,907.5 C239.89062499999997,901.3333333333334 239.89062499999997,895.1666666666666 239.89062499999997,883.25 C239.89062499999997,871.3333333333333 239.890625,853.6666666666666 239.890625,841.7499999999998 C239.890625,829.8333333333334 239.890625,823.6666666666667 239.890625,817.5000000000001 C239.890625,811.3333333333334 239.890625,805.1666666666667 239.89062499999997,793.25 C239.89062499999997,781.3333333333333 239.89062499999997,763.6666666666666 239.890625,751.75 C239.890625,739.8333333333333 239.89062499999997,733.6666666666666 239.890625,727.5 C239.890625,721.3333333333334 239.89062499999997,715.1666666666666 239.89062499999997,703.2499999999999 C239.89062499999997,691.3333333333333 239.89062499999997,673.6666666666665 239.890625,661.75 C239.890625,649.8333333333334 239.89062499999997,643.6666666666666 239.890625,637.5000000000001 C239.890625,631.3333333333334 239.890625,625.1666666666666 239.890625,613.25 C239.890625,601.3333333333333 239.89062499999997,583.6666666666666 239.890625,571.75 C239.890625,559.8333333333333 239.89062499999997,553.6666666666666 239.89062499999997,547.4999999999999 C239.89062499999997,541.3333333333333 239.89062499999997,535.1666666666666 239.890625,523.25 C239.890625,511.3333333333333 239.89062499999997,493.66666666666663 239.890625,481.7500000000001 C239.890625,469.83333333333337 239.890625,463.6666666666667 239.890625,457.50000000000006 C239.890625,451.33333333333337 239.89062499999997,445.16666666666663 239.890625,433.25000000000006 C239.890625,421.33333333333337 239.89062499999997,403.6666666666667 239.89062499999997,391.75 C239.89062499999997,379.8333333333333 239.890625,373.66666666666663 239.890625,367.5 C239.890625,361.33333333333337 239.89062499999997,355.16666666666663 239.890625,343.25 C239.890625,331.3333333333333 239.89062499999997,313.66666666666663 239.89062499999997,301.74999999999994 C239.89062499999997,289.8333333333333 239.890625,283.66666666666663 239.89062499999997,277.49999999999994 C239.89062499999997,271.33333333333326 239.890625,265.16666666666663 239.890625,253.25000000000003 C239.890625,241.33333333333337 239.89062499999997,223.66666666666666 239.890625,211.75 C239.890625,199.83333333333334 239.890625,193.66666666666666 239.89062499999997,187.49999999999994 C239.89062499999997,181.3333333333333 239.890625,175.16666666666663 239.89062499999994,163.24999999999997 C239.89062499999997,151.33333333333331 239.890625,133.66666666666666 239.890625,122.58333333333333 C239.890625,111.49999999999999 239.89062499999994,106.99999999999999 239.89062499999994,102.49999999999997 C239.89062499999994,97.99999999999999 239.890625,93.5 239.890625,88.75 C239.890625,84 239.890625,79 265.44661458333337,69" class="clickable"/></g><path d="M 265.44661458333337,69 L 272.44661458333337,66.5 L 272.44661458333337,71.5 Z" transform="rotate(158.62970793968657 265.44661458333337 69)" class="arrow" style="fill:rgb(48, 48, 48);stroke-linejoin:miter;stroke-miterlimit:2;"/><text class="clickable sprotty-label transition" id="sprotty_fsm$currentState/state$PATTERN15_to_fsm$currentState/state$BLANK/label0" transform="translate(12, 764) translate(110.9453125, 14)" style="cursor:default;fill:rgb(48, 48, 48);font-size:16px;perspective-origin:55.875px 2.5px;stroke:none;text-anchor:middle;">stateMachineControl = ACTIVE</text></g></g></g></svg>